<svg width="20" height="25" viewBox="0 0 20 25" fill="none" xmlns="http://www.w3.org/2000/svg">
<g clip-path="url(#clip0_72_108)">
<path d="M10 12.5001C8.625 12.5001 7.5 11.4126 7.5 10.0834C7.5 8.75425 8.625 7.66675 10 7.66675C11.375 7.66675 12.5 8.75425 12.5 10.0834C12.5 11.4126 11.375 12.5001 10 12.5001ZM17.5 10.3251C17.5 5.93883 14.1875 2.83341 10 2.83341C5.8125 2.83341 2.5 5.93883 2.5 10.3251C2.5 13.1526 4.9375 16.8984 10 21.3692C15.0625 16.8984 17.5 13.1526 17.5 10.3251ZM10 0.416748C15.25 0.416748 20 4.30758 20 10.3251C20 14.3367 16.6625 19.0855 10 24.5834C3.3375 19.0855 0 14.3367 0 10.3251C0 4.30758 4.75 0.416748 10 0.416748Z" fill="#3B8BC4"/>
</g>
<defs>
<clipPath id="clip0_72_108">
<rect width="20" height="25" fill="white"/>
</clipPath>
</defs>
</svg>
