<svg width="23" height="23" viewBox="0 0 23 23" fill="none" xmlns="http://www.w3.org/2000/svg">
<path d="M11.5026 5.60184C8.23921 5.60184 5.60697 8.23408 5.60697 11.4974C5.60697 14.7608 8.23921 17.393 11.5026 17.393C14.7659 17.393 17.3982 14.7608 17.3982 11.4974C17.3982 8.23408 14.7659 5.60184 11.5026 5.60184ZM11.5026 15.3303C9.3937 15.3303 7.66966 13.6114 7.66966 11.4974C7.66966 9.38344 9.38857 7.66453 11.5026 7.66453C13.6166 7.66453 15.3355 9.38344 15.3355 11.4974C15.3355 13.6114 13.6114 15.3303 11.5026 15.3303V15.3303ZM19.0144 5.36068C19.0144 6.12521 18.3987 6.73581 17.6393 6.73581C16.8748 6.73581 16.2642 6.12008 16.2642 5.36068C16.2642 4.60129 16.8799 3.98556 17.6393 3.98556C18.3987 3.98556 19.0144 4.60129 19.0144 5.36068ZM22.9192 6.75633C22.832 4.91428 22.4112 3.2826 21.0617 1.93826C19.7174 0.593921 18.0857 0.173174 16.2437 0.0808143C14.3452 -0.0269381 8.65482 -0.0269381 6.75633 0.0808143C4.91941 0.168042 3.28773 0.58879 1.93826 1.93313C0.58879 3.27747 0.173173 4.90915 0.0808143 6.7512C-0.0269381 8.6497 -0.0269381 14.3401 0.0808143 16.2385C0.168042 18.0806 0.58879 19.7123 1.93826 21.0566C3.28773 22.401 4.91428 22.8217 6.75633 22.9141C8.65482 23.0218 14.3452 23.0218 16.2437 22.9141C18.0857 22.8268 19.7174 22.4061 21.0617 21.0566C22.4061 19.7123 22.8268 18.0806 22.9192 16.2385C23.0269 14.3401 23.0269 8.65483 22.9192 6.75633V6.75633ZM20.4665 18.2756C20.0663 19.2813 19.2915 20.0561 18.2807 20.4614C16.767 21.0618 13.1753 20.9232 11.5026 20.9232C9.82984 20.9232 6.23296 21.0566 4.72443 20.4614C3.71874 20.0612 2.94395 19.2864 2.53859 18.2756C1.93826 16.7619 2.0768 13.1702 2.0768 11.4974C2.0768 9.82471 1.94339 6.22783 2.53859 4.7193C2.93882 3.71361 3.71361 2.93882 4.72443 2.53346C6.23809 1.93313 9.82984 2.07167 11.5026 2.07167C13.1753 2.07167 16.7722 1.93826 18.2807 2.53346C19.2864 2.93369 20.0612 3.70848 20.4665 4.7193C21.0669 6.23297 20.9283 9.82471 20.9283 11.4974C20.9283 13.1702 21.0669 16.767 20.4665 18.2756Z" fill="#B03687"/>
</svg>
