<svg width="24" height="24" viewBox="0 0 24 24" fill="none" xmlns="http://www.w3.org/2000/svg">
<path d="M9.30672 5.33007L10.7501 6.71452M13.6368 9.48343L15.0802 10.8679M17.9669 13.6368L19.4102 15.0212M2.38445 12.5469C2.01727 12.9297 1.8172 13.4427 1.82825 13.973C1.83929 14.5033 2.06056 15.0075 2.44336 15.3747L4.6084 17.4514C4.97558 17.0686 5.47979 16.8473 6.01011 16.8363C6.54043 16.8252 7.05341 17.0253 7.43621 17.3925C7.81902 17.7596 8.04028 18.2638 8.05133 18.7942C8.06237 19.3245 7.8623 19.8375 7.49512 20.2203L9.66016 22.297C10.043 22.6641 10.556 22.8642 11.0863 22.8532C11.6166 22.8421 12.1208 22.6208 12.488 22.238L22.1791 12.1345C22.5463 11.7517 22.7464 11.2387 22.7354 10.7084C22.7243 10.1781 22.503 9.67389 22.1202 9.30671L19.9552 7.23003C19.588 7.61283 19.0838 7.83409 18.5535 7.84514C18.0232 7.85619 17.5102 7.65612 17.1274 7.28894C16.7446 6.92176 16.5233 6.41755 16.5123 5.88723C16.5012 5.35691 16.7013 4.84393 17.0685 4.46112L14.9034 2.38444C14.5206 2.01726 14.0076 1.81719 13.4773 1.82824C12.947 1.83929 12.4428 2.06055 12.0756 2.44335L2.38445 12.5469Z" stroke="white" stroke-width="2" stroke-linecap="round" stroke-linejoin="round"/>
</svg>
