<svg width="18" height="21" viewBox="0 0 18 21" fill="none" xmlns="http://www.w3.org/2000/svg">
<path d="M18 8.43633C16.2306 8.44056 14.5046 7.88876 13.0658 6.85886V14.0417C13.0654 15.372 12.6587 16.6705 11.9004 17.7635C11.142 18.8565 10.068 19.6919 8.82199 20.158C7.576 20.6242 6.21739 20.6988 4.92784 20.3719C3.63828 20.0451 2.47925 19.3323 1.60571 18.329C0.732175 17.3256 0.185777 16.0795 0.0395762 14.7572C-0.106624 13.4349 0.154342 12.0995 0.787581 10.9296C1.42082 9.75964 2.39615 8.81089 3.58315 8.21021C4.77015 7.60953 6.11224 7.38555 7.42997 7.56822V11.1809C6.82698 10.9913 6.17947 10.997 5.57991 11.1972C4.98036 11.3975 4.45942 11.7821 4.09148 12.2961C3.72355 12.8102 3.52745 13.4273 3.53117 14.0594C3.53489 14.6915 3.73826 15.3063 4.11222 15.8159C4.48618 16.3256 5.01161 16.704 5.61348 16.8972C6.21536 17.0904 6.86289 17.0885 7.46361 16.8917C8.06433 16.695 8.58752 16.3134 8.95846 15.8016C9.3294 15.2898 9.52912 14.6738 9.52911 14.0417V0H13.0658C13.0634 0.29867 13.0884 0.596932 13.1406 0.891017C13.2635 1.54752 13.519 2.17204 13.8916 2.7264C14.2641 3.28075 14.7458 3.75328 15.3073 4.11508C16.106 4.64321 17.0424 4.92471 18 4.92451V8.43633Z" fill="black"/>
</svg>
