<svg width="25" height="21" viewBox="0 0 25 21" fill="none" xmlns="http://www.w3.org/2000/svg">
<path d="M22.4303 5.06027C22.4461 5.28234 22.4461 5.50446 22.4461 5.72653C22.4461 12.5 17.2907 20.3046 7.86805 20.3046C4.96511 20.3046 2.26842 19.4638 0 18.0045C0.412453 18.0521 0.808988 18.0679 1.23731 18.0679C3.63258 18.0679 5.83757 17.259 7.59837 15.8789C5.34582 15.8313 3.45812 14.356 2.80773 12.3255C3.12501 12.3731 3.44225 12.4048 3.77541 12.4048C4.23542 12.4048 4.69548 12.3414 5.12375 12.2304C2.77604 11.7544 1.01519 9.69227 1.01519 7.20178V7.13836C1.69727 7.51907 2.49049 7.75701 3.33117 7.7887C1.95108 6.86863 1.04693 5.29821 1.04693 3.52155C1.04693 2.56979 1.30069 1.69732 1.74488 0.935892C4.26711 4.04503 8.05838 6.07546 12.3096 6.29758C12.2303 5.91687 12.1827 5.52033 12.1827 5.12375C12.1827 2.30011 14.467 0 17.3065 0C18.7817 0 20.1142 0.618655 21.0501 1.61802C22.2081 1.39595 23.3185 0.967631 24.302 0.380714C23.9213 1.57046 23.1123 2.56983 22.0495 3.20431C23.0806 3.09332 24.08 2.80773 25 2.41119C24.3021 3.42638 23.4296 4.33053 22.4303 5.06027Z" fill="#4BAAE4"/>
</svg>
